<!-- <svg xmlns="http://www.w3.org/2000/svg" fill="none" class="icon icon-cart" viewBox="0 0 40 40"><path fill="currentColor" fill-rule="evenodd" d="M20.5 6.5a4.75 4.75 0 0 0-4.75 4.75v.56h-3.16l-.77 11.6a5 5 0 0 0 4.99 5.34h7.38a5 5 0 0 0 4.99-5.33l-.77-11.6h-3.16v-.57A4.75 4.75 0 0 0 20.5 6.5m3.75 5.31v-.56a3.75 3.75 0 1 0-7.5 0v.56zm-7.5 1h7.5v.56a3.75 3.75 0 1 1-7.5 0zm-1 0v.56a4.75 4.75 0 1 0 9.5 0v-.56h2.22l.71 10.67a4 4 0 0 1-3.99 4.27h-7.38a4 4 0 0 1-4-4.27l.72-10.67z"/></svg> -->

<svg width="21" height="21" viewBox="0 0 21 21" fill="none" xmlns="http://www.w3.org/2000/svg">
<path d="M2 14V2H0V0H3C3.55229 0 4 0.44772 4 1V13H16.4384L18.4384 5H6V3H19.7192C20.2715 3 20.7192 3.44772 20.7192 4C20.7192 4.08176 20.7092 4.16322 20.6893 4.24254L18.1893 14.2425C18.0781 14.6877 17.6781 15 17.2192 15H3C2.44772 15 2 14.5523 2 14ZM4 21C2.89543 21 2 20.1046 2 19C2 17.8954 2.89543 17 4 17C5.10457 17 6 17.8954 6 19C6 20.1046 5.10457 21 4 21ZM16 21C14.8954 21 14 20.1046 14 19C14 17.8954 14.8954 17 16 17C17.1046 17 18 17.8954 18 19C18 20.1046 17.1046 21 16 21Z" fill="#181818"/>
</svg>

