<svg width="27" height="27" viewBox="0 0 27 27" fill="none" xmlns="http://www.w3.org/2000/svg">
<path d="M24.9443 0.320312H2.24461C1.20448 0.320312 0.359375 1.17325 0.359375 2.22031V24.7733C0.359375 25.8203 1.20448 26.6733 2.24461 26.6733H24.9443C25.9844 26.6733 26.8354 25.8203 26.8354 24.7733V2.22031C26.8354 1.17325 25.9844 0.320312 24.9443 0.320312ZM8.36128 22.9085H4.43715V10.3321H8.36719V22.9085H8.36128ZM6.39922 8.61443C5.14042 8.61443 4.12393 7.59678 4.12393 6.34972C4.12393 5.10267 5.14042 4.08502 6.39922 4.08502C7.6521 4.08502 8.6745 5.10267 8.6745 6.34972C8.6745 7.60267 7.65801 8.61443 6.39922 8.61443ZM23.0708 22.9085H19.1467V16.7909C19.1467 15.3321 19.1172 13.4556 17.1078 13.4556C15.063 13.4556 14.7498 15.0438 14.7498 16.685V22.9085H10.8257V10.3321H14.5902V12.0497H14.6434C15.1694 11.0615 16.4518 10.0203 18.3607 10.0203C22.3321 10.0203 23.0708 12.6262 23.0708 16.0144V22.9085Z" fill="white"/>
</svg>
