<svg width="22" height="22" viewBox="0 0 22 22" fill="none" xmlns="http://www.w3.org/2000/svg">
<path d="M14.1293 13.1946L12.608 15.096C10.252 13.7106 8.28796 11.748 6.90396 9.39197L8.80529 7.87064C9.26396 7.50397 9.41729 6.8733 9.17862 6.3373L7.44529 2.43464C7.18796 1.85597 6.55062 1.5493 5.93862 1.70797L2.63862 2.56397C2.00129 2.73064 1.58929 3.34797 1.67996 3.99997C2.86929 12.472 9.52796 19.1306 18.0013 20.3213C18.6533 20.4106 19.2706 19.9986 19.436 19.3626L20.292 16.0626C20.4506 15.4506 20.144 14.8146 19.5666 14.5573L15.664 12.824C15.128 12.5853 14.4986 12.7386 14.1306 13.196L14.1293 13.1946Z" stroke="#212121" stroke-width="2" stroke-linecap="round" stroke-linejoin="round"/>
</svg>
